<?xml version="1.0" encoding="utf-8"?>
<!-- Generator: Adobe Illustrator 24.3.0, SVG Export Plug-In . SVG Version: 6.00 Build 0)  -->
<svg version="1.1" id="Layer_1" xmlns="http://www.w3.org/2000/svg" xmlns:xlink="http://www.w3.org/1999/xlink" x="0px" y="0px"
	 viewBox="0 0 42 32" style="enable-background:new 0 0 42 32;" xml:space="preserve">
<style type="text/css">
	.st0{fill:#58595B;}
	.st1{fill:#E5E6E7;}
	.st2{fill:#414042;}
	.st3{fill:#57585A;}
	.st4{fill:#D0D2D3;}
	.st5{fill:#929497;}
	.st6{fill:#808285;}
	.st7{fill:#478BF6;}
	.st8{fill:#2266D2;}
	.st9{fill:#377DE1;}
	.st10{fill:#A44AF3;}
	.st11{fill:#893ADC;}
	.st12{fill:#E4E5E6;}
	.st13{fill:#FEC81D;}
	.st14{fill:#FDC81F;}
	.st15{fill:#D00028;}
	.st16{fill:#5D9BF6;}
	.st17{fill:#FEA81A;}
</style>
<path class="st0" d="M28.6,9.4c0.5,0,1.1,0,1.6,0c1.1,0,2.2,0,3.2,0c0.2,0,0.4,0,0.6,0.1c0.2,0.2,0.2,0.4,0.2,0.6c0,2.1,0,4.2,0,6.2
	c0,2.9,0,5.7,0,8.6c0,0.8-0.4,1.2-1.1,1.3c-0.2,0-0.4,0-0.6,0c-0.1,0-0.2,0-0.3,0c-7.8,0-15.6,0-23.4,0c-0.4,0-0.8,0-1.2-0.1
	c-0.2-0.2-0.2-0.5-0.2-0.8c0-3.5,0-7,0-10.5c0-1.4,0-2.8,0-4.2c0-0.8,0.5-1.3,1.3-1.3c1.6,0,3.1,0,4.7,0c0.1,0,0.1,0.1,0.1,0.1
	c0,0.3,0.1,0.7,0,1c-0.1,0.1-0.3,0.1-0.5,0.1c-1.2,0-2.3,0-3.5,0c-0.1,0-0.2,0-0.4,0c-0.5,0-0.7,0.2-0.7,0.7c0,1.9,0,3.8,0,5.7
	c0,1.9,0,3.9,0,5.8c0,0.2,0,0.4,0,0.5c-0.1,0.2,0,0.3,0,0.5c0,0.3,0.2,0.6,0.6,0.6c0.1,0,0.2,0,0.4,0c7.8,0,15.6,0,23.4,0
	c0.1,0,0.2,0,0.3,0c0.4,0,0.6-0.2,0.6-0.6c0-0.1,0-0.2,0-0.4c0-4,0-7.9,0-11.9c0-0.1,0-0.2,0-0.4c0-0.4-0.2-0.6-0.6-0.7
	c-1.4,0-2.8,0-4.1,0c-0.1,0-0.2,0-0.2,0c-0.1,0-0.1-0.1-0.1-0.2C28.5,9.9,28.4,9.6,28.6,9.4z"/>
<path class="st1" d="M13.3,10.4c0-0.4,0.1-0.7,0-1.1c0.1-0.1,0.1-0.2,0.1-0.3c0-1.6,0-3.2,0-4.7c0-0.6,0-1.2,0-1.9
	c0-0.1,0-0.2,0.1-0.3c0.1,0.1,0.1,0.2,0.1,0.4c0,0.4,0,0.7,0,1.1c0,0.2,0.1,0.3,0.3,0.3c0.1,0,0.2,0,0.4,0c4.5,0,8.9,0,13.4,0
	c0.2,0,0.4,0,0.5,0.1c0,0,0.1,0.1,0.1,0.1c0,0.1,0,0.3,0,0.4c0,2.8,0,5.5,0,8.3c0,0.1,0,0.2,0,0.2c0,0.2-0.1,0.4-0.4,0.4
	c-0.1,0-0.1,0-0.2,0c-4.6,0-9.2,0-13.8,0c-0.1,0-0.3,0-0.4-0.1c-0.1-0.1-0.1-0.2-0.1-0.3c0-0.7,0-1.5,0-2.2
	C13.3,10.6,13.3,10.5,13.3,10.4z"/>
<path class="st0" d="M28,3.9c-0.1,0-0.2,0-0.3,0c-4.7,0-9.3,0-14,0c-0.3,0-0.4-0.1-0.4-0.3c0-0.5,0-1,0-1.5c0.1-0.3,0.3-0.5,0.7-0.5
	c4.5,0,9.1,0,13.6,0c0,0,0,0,0.1,0c0.3,0.1,0.4,0.3,0.4,0.6c0,0.5,0,0.9,0,1.4C28.1,3.7,28.1,3.8,28,3.9z"/>
<path class="st2" d="M7.5,26.2c0.1-0.1,0.2-0.1,0.3-0.1c0.3,0.1,0.6,0,0.9,0c7.9,0,15.9,0,23.8,0c0.4,0,0.7,0,1.1-0.2
	c0.3-0.2,0.5-0.5,0.5-0.9c0-5.1,0-10.1,0-15.2c0-0.1,0-0.2-0.1-0.4c0.4,0.1,0.6,0.4,0.6,0.8c0,0.1,0,0.3,0,0.4c0,4.9,0,9.8,0,14.7
	c0,0.9-0.5,1.4-1.4,1.4c-3.4,0-6.7,0-10.1,0c-0.1,0-0.2,0-0.4,0c-0.2,0.2-0.5,0.1-0.7,0.1c-0.9,0-1.8,0-2.7,0c-0.1,0-0.2,0-0.3-0.1
	c-2.2,0-4.3,0-6.5,0c-1.3,0-2.7,0-4,0C8.1,26.7,7.7,26.6,7.5,26.2z"/>
<path class="st3" d="M12.7,30.4c-0.1-0.4-0.1-0.8,0.1-1.1c0.1-0.3,0.4-0.4,0.7-0.4c1.8,0,3.5,0,5.3,0c0.1,0,0.2,0,0.4,0
	c0.1-0.1,0.3-0.1,0.4-0.1c1,0,2,0,3,0c0.1,0,0.3,0,0.4,0.1c1.9,0,3.7,0,5.6,0c0.1,0,0.3,0,0.4,0.1c0,0.2,0,0.4-0.1,0.6
	c-0.1,0.2-0.2,0.4-0.5,0.4c-0.1,0-0.3,0-0.4,0c-4.8,0-9.6,0-14.4,0c-0.1,0-0.2,0-0.3,0c-0.2,0-0.4,0-0.4,0.3
	C12.8,30.3,12.8,30.4,12.7,30.4z"/>
<path class="st2" d="M12.7,30.4c0-0.6,0-0.6,0.6-0.6c5,0,9.9,0,14.9,0c0.4,0,0.5-0.1,0.5-0.5c0-0.1-0.1-0.3,0.1-0.3
	c0.2,0.1,0.4,0.2,0.4,0.4c0,0.1,0,0.2,0,0.2c0,0.8,0,0.8-0.7,0.8c-5.2,0-10.3,0-15.5,0C12.9,30.5,12.8,30.4,12.7,30.4z"/>
<path class="st4" d="M13.4,13.2c4.8,0,9.5,0,14.3,0c0.3,0,0.4-0.1,0.4-0.4c0-3,0-5.9,0-8.9c0.2-0.1,0.4-0.1,0.6,0c0,1.8,0,3.6,0,5.4
	c0.1,0.3,0,0.7,0,1.1c0,0,0,0.1,0,0.1c0,0.8,0,1.6,0,2.4c0,0.1,0,0.3-0.1,0.4c-0.2,0.1-0.4,0.1-0.6,0.1c-0.2,0-0.3,0-0.5,0
	c-4.5,0-9.1,0-13.6,0C13.7,13.4,13.6,13.4,13.4,13.2C13.3,13.3,13.3,13.3,13.4,13.2z"/>
<path class="st5" d="M19.1,26.8c1,0,2,0,3,0c0.2,0.4,0.1,0.8,0,1.2c-0.1,0.2-0.2,0.4-0.5,0.4c-0.9,0-1.7,0.1-2.6,0
	C19.1,27.8,19.1,27.3,19.1,26.8z"/>
<path class="st6" d="M19.1,28.3c0.1-0.1,0.2-0.1,0.3-0.1c0.7,0,1.4,0,2.1,0c0.4,0,0.6-0.2,0.6-0.6c0-0.3,0-0.6,0-0.9
	c0.2,0,0.5,0,0.7,0c0,0.7,0,1.4,0,2.2c-1.3,0-2.5,0-3.8,0C19.1,28.7,19.1,28.5,19.1,28.3z"/>
<path class="st2" d="M28.6,3.9c-0.2,0-0.4,0-0.6,0c0,0,0,0,0,0c0-0.5,0-1,0-1.5c0-0.3,0-0.6-0.4-0.8c0.1,0,0.3,0,0.4,0
	c0.3,0,0.5,0.2,0.5,0.5C28.6,2.7,28.6,3.3,28.6,3.9z"/>
<path class="st7" d="M28.6,13.3c0-0.8,0-1.7,0-2.5c0-0.1,0-0.2,0-0.3c0.1,0,0.2,0,0.2,0c1.1,0,2.2,0,3.3,0c0.2,0,0.3,0.1,0.3,0.3
	c0,0.1,0,0.2,0,0.3c0,3.8,0,7.5,0,11.3c0,0.1,0,0.2,0,0.3c0,0.4-0.2,0.6-0.6,0.7c-0.1,0-0.3,0-0.4,0c-7.6,0-15.1,0-22.7,0
	c-0.2,0-0.3,0-0.5-0.1c0,0,0,0,0,0c0-4,0-8,0-12c0-0.7,0.2-0.9,0.9-0.9c1.4,0,2.8,0,4.1,0c0,0.9,0,1.9,0,2.8c0,0,0,0,0,0.1
	c0.1,0.1,0.1,0.2,0.1,0.4c0,0.4,0,0.9,0,1.3c0.1,0.4,0.2,0.5,0.6,0.5c0.3,0,0.6,0,0.9,0c4.2,0,8.4,0,12.6,0c0.1,0,0.3,0,0.4,0
	c0.4,0,0.6-0.2,0.6-0.6c0-0.4,0-0.8,0-1.2C28.5,13.5,28.5,13.4,28.6,13.3z"/>
<path class="st8" d="M33,10.4c0.4,0,0.6,0.2,0.6,0.6c0,0.1,0,0.1,0,0.2c0,4.1,0,8.3,0,12.4c0,0.2,0,0.4-0.1,0.5
	c-0.1,0.2-0.3,0.3-0.6,0.3c-3.4,0-6.8,0-10.2,0c-4.6,0-9.1,0-13.7,0c-0.7,0-0.8-0.2-0.8-0.9c0-0.1,0-0.2,0-0.3c0,0,0,0,0,0
	c0,0,0,0,0,0.1c0.1,0.4,0.1,0.4,0.6,0.4c7.7,0,15.4,0,23.1,0c0.8,0,0.9-0.1,0.9-0.9c0-4,0-8,0-12C33,10.8,32.9,10.6,33,10.4z"/>
<path class="st9" d="M33,10.4c0,4.2,0,8.4,0,12.7c0,0.7-0.1,0.8-0.8,0.8c-7.8,0-15.7,0-23.5,0c-0.5,0-0.4,0.1-0.4-0.4
	c0,0,0-0.1,0-0.1c7.8,0,15.5,0,23.3,0c0.6,0,0.9-0.2,0.9-0.9c0-3.9,0-7.7,0-11.6c0-0.4,0-0.4-0.4-0.4c-1.1,0-2.3,0-3.4,0
	c0,0,0,0,0,0C30.1,10.4,31.6,10.4,33,10.4z"/>
<path class="st5" d="M21,25c0.3,0,0.5,0.2,0.5,0.5c0,0.3-0.2,0.5-0.5,0.5c-0.3,0-0.5-0.3-0.5-0.5C20.5,25.2,20.7,25,21,25z"/>
<path class="st10" d="M14.6,12.3c-0.1-0.1,0-0.1,0-0.2c0-2.3,0-4.6,0-6.9c0-0.6,0.2-0.8,0.8-0.8c3.8,0,7.5,0,11.3,0
	c0.1,0,0.2,0,0.2,0.1c-0.1,0.2-0.1,0.4-0.1,0.6c0,2,0,3.9,0,5.9c0,0.1,0,0.2,0,0.4c0,0.6-0.3,0.9-0.9,0.9c-3.6,0-7.1,0-10.7,0
	C15.1,12.3,14.8,12.3,14.6,12.3z"/>
<path class="st11" d="M14.6,12.3c0-0.1,0-0.2,0.2-0.2c0.1,0,0.2,0,0.3,0c3.6,0,7.3,0,10.9,0c0.5,0,0.8-0.3,0.8-0.8
	c0-2.2,0-4.4,0-6.6c0-0.1-0.1-0.3,0.2-0.3c0.3,0.1,0.4,0.4,0.4,0.7c0,1.9,0,3.7,0,5.6c0,0.4,0,0.9,0,1.3c0,0.5-0.2,0.7-0.7,0.7
	c-3.8,0-7.6,0-11.4,0C15,12.8,14.7,12.7,14.6,12.3z"/>
<path class="st12" d="M15.1,3.2c-0.5,0-0.6,0.1-0.6-0.6c0-0.1,0-0.2,0-0.3c0-0.2,0.1-0.3,0.3-0.3c0,0,0.1,0,0.1,0
	c0.8,0,0.7-0.1,0.7,0.7c0,0.3-0.1,0.4-0.4,0.4C15.3,3.2,15.2,3.2,15.1,3.2z"/>
<path class="st12" d="M18.1,3.2c-0.5,0-0.5,0-0.5-0.5c0-0.6-0.1-0.5,0.5-0.5c0.6,0,0.6-0.1,0.6,0.6c0,0,0,0.1,0,0.1
	c0,0.3-0.1,0.4-0.3,0.4C18.2,3.2,18.1,3.2,18.1,3.2z"/>
<path class="st12" d="M23.9,2.2c0.5,0,0.5,0,0.5,0.5c0,0.6,0,0.6-0.5,0.6c-0.5,0-0.6,0.1-0.5-0.5c0-0.1,0-0.1,0-0.2
	c0-0.3,0.1-0.4,0.4-0.4C23.8,2.2,23.8,2.2,23.9,2.2z"/>
<path class="st12" d="M26.8,3.2c-0.1,0-0.1,0-0.2,0c-0.3,0-0.3-0.1-0.3-0.3c0-0.9-0.1-0.7,0.7-0.7c0.3,0,0.4,0.1,0.4,0.4
	c0,0.1,0,0.1,0,0.2C27.4,3.3,27.3,3.2,26.8,3.2z"/>
<path class="st1" d="M21.5,2.7c0,0.5,0,0.5-0.5,0.5c-0.6,0-0.5,0.1-0.6-0.5c0-0.1,0-0.1,0-0.2c0-0.3,0.1-0.4,0.3-0.3
	c0.1,0,0.1,0,0.2,0C21.6,2.2,21.5,2.1,21.5,2.7z"/>
<path class="st0" d="M13.4,15c0-0.6,0-1.1,0-1.7c4.9,0,9.8,0,14.7,0c0.2,0.5,0.1,0.9,0,1.4c-0.1,0.3-0.4,0.4-0.7,0.3
	c-0.1-0.2,0-0.4,0-0.6c0-0.3-0.1-0.4-0.4-0.4c-0.1,0-0.2,0-0.3,0c-0.2,0-0.3,0.1-0.3,0.3c0,0.1,0,0.3,0,0.4c0,0.1,0,0.2-0.1,0.3
	c-0.6,0.1-1.2,0.1-1.9,0c-0.1-0.2,0-0.3-0.1-0.5c0-0.2,0.1-0.4-0.1-0.4C24,14,23.8,14,23.5,14c-0.1,0.1-0.1,0.2-0.1,0.4
	c0,0.2,0.1,0.4-0.1,0.6c-0.6,0.1-1.2,0.1-1.8,0c-0.2-0.2-0.1-0.4-0.1-0.6c0-0.1,0-0.3-0.1-0.4c-0.2-0.1-0.5-0.1-0.7,0
	c-0.1,0-0.1,0.2-0.1,0.3c0,0.2,0.1,0.4-0.1,0.6c-0.2,0.1-0.4,0.1-0.6,0.1c-0.4,0-0.8,0.1-1.2,0c-0.1,0-0.1-0.1-0.1-0.2
	c0-0.1,0-0.2,0-0.3c0-0.5-0.3-0.7-0.8-0.5c-0.1,0.1-0.1,0.2-0.2,0.3c0,0.2,0.1,0.5-0.1,0.7c-0.6,0.1-1.2,0.1-1.9,0
	c-0.1-0.2-0.1-0.3-0.1-0.5c0-0.4-0.4-0.7-0.8-0.5c-0.1,0.1-0.1,0.2-0.1,0.3c0,0.2,0.1,0.4-0.1,0.6C14.2,15.1,13.8,15.1,13.4,15z"/>
<path class="st2" d="M21.5,15c0.6,0,1.3,0,1.9,0c0.3,0,0.7,0,1,0c0.6,0,1.3,0,1.9,0c0.3,0,0.7,0,1,0c0.5,0,0.7-0.2,0.7-0.7
	c0-0.3,0-0.7,0-1c0.2,0,0.4,0,0.6,0c0,0.6,0,1.1,0,1.7c0,0.4-0.2,0.6-0.6,0.6c-0.8,0-1.6,0-2.4,0c-3.8,0-7.6,0-11.5,0
	c-0.5,0-0.7-0.2-0.7-0.6c0.4,0,0.9,0,1.3,0c0.3,0,0.7,0,1,0c0.6,0,1.3,0,1.9,0c0.3-0.1,0.7,0,1,0c0.6,0,1.3,0,1.9,0
	C20.8,14.9,21.1,14.9,21.5,15z"/>
<path class="st13" d="M26.3,17.9c1.5,0,3,0,4.6,0c0.4,0,0.4,0,0.4,0.4c0,0.2,0,0.5,0,0.7c0,0.2-0.1,0.3-0.3,0.3c0,0,0,0-0.1,0
	c-3.1,0-6.2,0-9.3,0c-0.3,0-0.4-0.1-0.3-0.4c0-0.2,0-0.5,0-0.7c0-0.3,0.1-0.4,0.4-0.4c1.4,0,2.8,0,4.1,0
	C25.9,17.9,26.1,17.9,26.3,17.9z"/>
<path class="st13" d="M15.5,22.8c-1.5,0-2.9,0-4.4,0c-0.4,0-0.4,0-0.4-0.4c0-0.2,0-0.4,0-0.6c0-0.4,0-0.4,0.4-0.4c1.5,0,2.9,0,4.4,0
	c0.1,0,0.1,0.1,0.1,0.2c0,0.3,0,0.7,0,1C15.6,22.7,15.6,22.8,15.5,22.8z"/>
<path class="st14" d="M19.8,19.7c0.4,0,0.7,0,1.1,0c0.2,0,0.3,0.1,0.3,0.3c0,0.3,0,0.5,0,0.8c0,0.2-0.1,0.3-0.3,0.3
	c-0.7,0-1.5,0-2.2,0c-0.2,0-0.3-0.1-0.3-0.3c0-0.3,0-0.5,0-0.8c0-0.2,0.1-0.3,0.3-0.3C19.1,19.7,19.4,19.7,19.8,19.7z"/>
<path class="st15" d="M15.5,22.8c0-0.5,0-0.9,0-1.4c0-1.3,0-2.6,0-3.9c0-0.1,0-0.2-0.1-0.2c-0.3-0.3-0.3-0.6-0.1-0.9
	c0.2-0.2,0.6-0.2,0.8,0c0.3,0.3,0.2,0.6-0.1,0.9C16,17.4,16,17.5,16,17.6c0,1.3,0,2.6,0,3.9c0.1,0.5,0.1,0.9,0,1.4
	c0,0.1-0.1,0.2-0.3,0.2C15.6,23,15.5,23,15.5,22.8z"/>
<path class="st16" d="M8.8,17.9c0-1.1,0-2.2,0-3.4c0-0.1,0-0.2,0-0.3c0-0.1,0.1-0.2,0.2-0.2c0.1,0,0.2,0.1,0.2,0.1
	c0,0.1,0,0.2,0,0.3c0,2.3,0,4.5,0,6.8c0,0,0,0.1,0,0.1c0,0.2-0.1,0.3-0.3,0.3c-0.2,0-0.2-0.2-0.2-0.3c0-1,0-1.9,0-2.9
	C8.8,18.3,8.8,18.1,8.8,17.9z"/>
<path class="st13" d="M16,22.8c0-0.5,0-0.9,0-1.4c0.7,0,1.3,0,2,0c0.3,0,0.4,0.1,0.4,0.4c0,0.2,0,0.5,0,0.7c0,0.3-0.1,0.4-0.4,0.4
	C17.3,22.8,16.7,22.8,16,22.8z"/>
<path class="st13" d="M19.2,10c0-1.1,0-2.1,0-3.2c0-0.4,0.3-0.5,0.6-0.3c0.8,0.5,1.5,1,2.3,1.5c0.1,0.3-0.1,0.4-0.3,0.5
	c-0.4,0.3-0.9,0.6-1.3,0.9c-0.3,0.2-0.6,0.4-0.9,0.6C19.5,10,19.4,10.1,19.2,10z"/>
<path class="st17" d="M19.2,10c0.7-0.5,1.4-0.9,2.1-1.4c0.2-0.1,0.3-0.2,0.5-0.3C22,8.3,22.1,8.2,22.1,8c0.2,0.1,0.3,0.2,0.5,0.3
	c0.2,0.2,0.2,0.4,0,0.6c-0.9,0.6-1.9,1.2-2.8,1.8c-0.3,0.2-0.5,0-0.5-0.3C19.2,10.3,19.2,10.2,19.2,10z"/>
<path class="st12" d="M15.6,15c-0.3,0.1-0.7,0.1-1,0c-0.1-0.3,0-0.6,0-0.9c0-0.1,0.1-0.2,0.2-0.2c0,0,0.1,0,0.1,0
	C15.7,13.9,15.9,14.1,15.6,15z"/>
<path class="st12" d="M27.3,15c-0.3,0.1-0.7,0.1-1,0c-0.1-0.3,0-0.6,0-0.9c0-0.1,0.1-0.2,0.2-0.2c0,0,0,0,0.1,0
	C27.3,13.9,27.5,14.1,27.3,15z"/>
<path class="st12" d="M18.6,15c-0.3,0.1-0.7,0.1-1,0c-0.1-0.3,0-0.6,0-0.9c0-0.1,0.1-0.2,0.2-0.2c0,0,0.1,0,0.1,0
	C18.6,13.9,18.8,14.1,18.6,15z"/>
<path class="st12" d="M24.4,15c-0.3,0.1-0.7,0.1-1,0c-0.1-0.3,0-0.6,0-0.8c0-0.1,0.1-0.2,0.2-0.2c0,0,0,0,0,0
	C24.4,13.9,24.6,14.1,24.4,15z"/>
<path class="st12" d="M21.5,15c-0.3,0.1-0.7,0.1-1,0c0-0.3,0-0.5,0-0.8c0-0.4,0.4-0.2,0.6-0.2c0.2,0,0.5-0.1,0.5,0.2
	C21.5,14.4,21.5,14.7,21.5,15z"/>
</svg>
