<?xml version="1.0" encoding="utf-8"?>
<!-- Generator: Adobe Illustrator 24.3.0, SVG Export Plug-In . SVG Version: 6.00 Build 0)  -->
<svg version="1.1" id="Layer_1" xmlns="http://www.w3.org/2000/svg" xmlns:xlink="http://www.w3.org/1999/xlink" x="0px" y="0px"
	 viewBox="0 0 42 42" style="enable-background:new 0 0 42 42;" xml:space="preserve">
<style type="text/css">
	.st0{fill:#6CF4C1;}
	.st1{fill:#678C97;}
	.st2{fill:#537982;}
	.st3{fill:#60B6FE;}
	.st4{fill:#D7EBFD;}
	.st5{fill:#5DE0C3;}
	.st6{fill:#26A5FD;}
	.st7{fill:#5DE0C2;}
	.st8{fill:#B2D9FD;}
	.st9{fill:#89C8FC;}
	.st10{fill:#E7F3FC;}
	.st11{fill:#FDD05A;}
	.st12{fill:#FCC143;}
</style>
<g>
	<path d="M29.5,22.9c0,0.7,0,1.4,0,2.1c0,0.1,0,0.2,0.1,0.3c0.7,0.7,1.4,1.4,2.1,2.1c0.2,0.2,0.3,0,0.4-0.1c2.2-2.4,6.1-1.6,7.1,1.5
		c0.6,1.8-0.1,3.7-1.7,4.8c-1.6,1-3.7,0.9-5-0.4c-0.9-0.9-1.8-1.8-2.7-2.7c-0.1-0.1-0.1-0.2-0.2-0.3c0,0-0.1,0-0.1,0.1
		c0,0.4,0,0.7,0,1.1c0,1.1,0.1,2.3-0.1,3.4c-0.3,2.1-2.3,3.7-4.4,3.5c-2.3-0.2-4-2-3.9-4.2c0-2.4,2.1-4.3,4.5-4.1
		c0.2,0,0.3,0,0.2-0.2c0-1,0-2,0-3c0-0.1,0-0.2-0.2-0.4c-1-0.9-1.9-1.9-2.9-2.9c-0.2-0.2-0.3-0.1-0.5-0.1c-6.1,0-12.3,0-18.4,0
		c-1.1,0-1.8-0.3-2.2-1.3c0-3.4,0-6.9,0-10.3c0.5-1.1,0.9-1.4,2.1-1.4c2.6,0,5.3,0,7.9,0c0.6,0,1.1,0.1,1.5,0.6
		c0.4,0.3,0.5,0.7,0.5,1.2c0,1.3,0,2.6,0,3.9c0,0.5,0,0.5,0.5,0.5c0.3,0,0.4-0.1,0.4-0.4c0-0.2,0-0.4,0-0.6c0-0.4,0.2-0.6,0.6-0.6
		c0.3,0,0.6,0.2,0.7,0.6c0,0.2,0,0.5,0,0.7c0,0.2,0.1,0.3,0.3,0.3c0,0,0,0,0.1,0c1.1,0,0.8,0.1,1.3-0.7c0.2-0.4,0.4-0.8,0.6-1.1
		c0.3-0.5,0.7-0.8,1.3-0.8c0.6,0,1,0.4,1.2,1c0.4,1.1,0.8,2.2,1.2,3.3c0,0.1,0.1,0.2,0.1,0.3c0.1,0.2,0.2,0.2,0.3,0
		c0.3-0.5,0.6-1,0.9-1.5c0.2-0.2,0.4-0.4,0.7-0.5c0.5,0,0.9,0,1.4,0c0.4,0,0.4,0,0.4-0.4c0-0.3,0-0.6,0-0.9c0-0.3,0-0.5,0.2-0.7
		c0.5-0.8,1.4-0.9,2.1-0.2c0.5,0.5,0.8,1.2,1.1,1.9c0.1,0.2,0.1,0.4,0.4,0.4c0.3,0,0.4-0.1,0.6-0.3c0.3-0.6,0.6-1.1,1-1.7
		c0.3-0.5,0.7-0.8,1.3-0.7c0.6,0.1,1,0.4,1.2,1c0.3,1.1,0.7,2.1,1.1,3.2c0,0.1,0,0.2,0.2,0.4c0.2-0.6,0.5-1.1,0.5-1.7
		c0-0.2,0-0.4,0-0.7c0-0.4,0.2-0.6,0.5-0.6c0.3,0,0.6,0.1,0.7,0.5c0.1,0.2,0,0.5,0.2,0.7c0.4,0,0.8,0,1.2,0c0.2,0,0.3-0.1,0.3-0.3
		c0-1.3,0-2.6,0-3.9c0-0.5-0.2-0.7-0.7-0.7c-0.5,0-0.9,0-1.4,0c-6.7,0-13.4,0-20.1,0c-0.2,0-0.4,0-0.6,0c-0.4-0.1-0.5-0.3-0.5-0.6
		c0.1-0.4,0.3-0.5,0.6-0.5c0.1,0,0.1,0,0.2,0c7.3,0,14.5,0,21.8,0c0.4,0,0.8,0.1,1.2,0.3c0.5,0.4,0.7,0.8,0.7,1.4c0,3.2,0,6.3,0,9.5
		c0,1.1-0.7,1.8-1.8,1.8c-2,0-3.9,0-5.9,0c-0.5,0-0.6-0.1-0.7-0.6c0-0.4,0.1-0.5,0.6-0.6c1.9,0,3.7,0,5.6,0c0.2,0,0.3,0,0.5,0
		c0.3,0,0.5-0.2,0.6-0.5c0-0.2,0-0.3,0-0.5c0-0.9,0-1.8,0-2.7c0-0.6,0-0.6-0.6-0.6c-0.3,0-0.7,0-1,0c-0.3,0-0.4,0.1-0.5,0.3
		c-0.1,0.3-0.2,0.5-0.3,0.8c-0.2,0.5-0.6,0.8-1.2,0.8c-0.6,0-1-0.3-1.2-0.8c-0.1-0.1-0.1-0.3-0.1-0.4c-0.3-1-0.7-2-1-3
		c0-0.1,0-0.3-0.2-0.3c-0.1,0-0.2,0.1-0.2,0.2c-0.3,0.6-0.7,1.2-1,1.7c-0.2,0.4-0.5,0.6-1,0.6c-0.4,0-0.4,0-0.4,0.4
		c0,1.4,0,2.8,0,4.1C29.6,22.7,29.6,22.8,29.5,22.9z"/>
	<path class="st0" d="M24,16.8c-0.2,0-0.4,0.2-0.5,0.4c-0.3,0.6-0.7,1.1-1,1.7c-0.1,0.1-0.1,0.2-0.2,0.2c-0.1,0-0.1-0.2-0.2-0.3
		c-0.4-1.3-0.9-2.5-1.3-3.8c-0.1-0.4-0.4-0.7-0.7-0.8c-0.6-0.2-1.2,0-1.5,0.6c-0.3,0.6-0.6,1.2-0.9,1.8c-0.1,0.2-0.2,0.3-0.4,0.2
		c-0.3,0-0.6,0-0.9,0c-0.3,0-0.3-0.1-0.3-0.3c0-0.2,0-0.5,0-0.7c0-0.4-0.2-0.6-0.6-0.6c-0.3,0-0.5,0.2-0.5,0.6c0,0.1,0,0.1,0,0.2
		c0,0.8,0,0.8-0.8,0.8c-0.3,0-0.3-0.1-0.3-0.3c0-1.3,0-2.7,0-4c0-0.5-0.1-1-0.4-1.4c0.5,0,1,0,1.5,0c0,0.3,0.1,0.5,0.4,0.6
		c0.1,0,0.3,0,0.4,0c6.8,0,13.6,0,20.3,0c0.6,0,0.6,0.1,0.6,0.6c0,1.3,0,2.7,0,4c0,0.2,0.1,0.5-0.3,0.5c0-0.2,0-0.4,0-0.5
		c0-0.4-0.2-0.6-0.6-0.6c-0.3,0-0.5,0.2-0.5,0.6c0.1,0.8-0.1,1.5-0.4,2.2c0,0.1,0,0.3-0.2,0.3c-0.1,0-0.1-0.2-0.2-0.3
		c-0.4-1.1-0.7-2.2-1.1-3.3c-0.2-0.6-0.5-0.9-1.1-1c-0.6-0.1-1,0.2-1.3,0.8c-0.3,0.6-0.7,1.1-1,1.7c-0.2,0.3-0.5,0.2-0.7,0.2
		c-0.2,0-0.2-0.2-0.3-0.3c-0.2-0.7-0.6-1.3-1-1.8c-0.6-0.8-1.4-0.8-2-0.1c-0.7,0.1-0.8,0.6-0.7,1.2c0,0.2,0,0.5,0,0.7
		c0,0.2-0.1,0.3-0.3,0.3C24.7,16.7,24.3,16.7,24,16.8z"/>
	<path class="st0" d="M29.5,22.9c0-1.4,0-2.8,0-4.1c0-0.3-0.1-0.6,0-0.8c0.1-0.2,0.5,0,0.8-0.1c0.3,0,0.4-0.2,0.5-0.4
		c0.4-0.7,0.8-1.4,1.2-2.1c0.1-0.1,0.1-0.2,0.2-0.2c0.1,0,0.1,0.2,0.2,0.3c0.4,1.1,0.7,2.2,1.1,3.3c0.2,0.7,0.6,1,1.2,1
		c0.6,0,1-0.3,1.2-0.9c0.1-0.2,0.2-0.5,0.2-0.7c0.1-0.3,0.2-0.3,0.4-0.3c0.1,0.1,0.1,0.3,0.1,0.4c0,1.1,0,2.2,0,3.4
		c0,0.6-0.1,0.6-0.6,0.6c-1.4,0-2.8,0-4.1,0c-0.1,0-0.3,0-0.4,0c-0.3,0.1-0.5,0.2-0.5,0.5C30.5,22.9,30,22.9,29.5,22.9z"/>
	<path class="st1" d="M3.4,22.3c-0.4-0.1-0.4-0.4-0.4-0.7c0-2.3,0-4.6,0-6.9c0-0.8,0-1.6,0-2.4c0-0.3,0.1-0.6,0.5-0.7
		c0.1,0,0.2,0,0.4,0c2.2,0,4.5,0,6.7,0c0.5,0,0.5,0.1,0.6,0.5c0,0.2,0,0.3,0,0.5c0,2.9,0,5.9,0,8.8c0,0,0,0.1,0,0.1
		c0,0.7-0.1,0.8-0.8,0.8c-2.2,0-4.4,0-6.6,0C3.6,22.3,3.5,22.3,3.4,22.3z"/>
	<path class="st0" d="M13.7,22.3c0.1-1.3,0-2.7,0.1-4c0-0.4,0.1-0.4,0.4-0.4c0.9,0,1.8,0,2.7,0c0.2,0,0.3,0,0.3,0.3
		c0,0.6,0.2,0.8,0.5,0.8c0.4,0,0.6-0.3,0.5-0.9c0-0.5,0.1-0.9,0.3-1.3c0.3-0.4,0.5-0.9,0.7-1.3c0.1-0.1,0.1-0.3,0.2-0.3
		c0.2,0,0.2,0.2,0.2,0.3c0.4,1.2,0.8,2.4,1.3,3.6c0.2,0.5,0.5,0.9,1.1,1c0.6,0.1,1-0.2,1.3-0.7c0.2-0.4,0.5-0.8,0.7-1.2
		c0.1-0.3,0.3-0.4,0.6-0.3c0.2,0,0.4,0,0.6,0c0.1,0.1,0.1,0.3,0.1,0.4c0,1.2,0,2.3,0,3.5c0,0.5,0,0.5-0.5,0.5c-3.6,0-7.2,0-10.8,0
		C14,22.3,13.9,22.3,13.7,22.3z"/>
	<path class="st2" d="M3.4,22.3c2.3,0,4.7,0,7,0c0.6,0,0.6-0.1,0.6-0.6c0-3.1,0-6.2,0-9.4c0-0.6-0.1-0.7-0.7-0.7c-2.3,0-4.6,0-6.9,0
		c0.1-0.1,0.3-0.1,0.4-0.1c2.7,0,5.3,0,8,0c0.7,0,0.9,0.2,0.9,0.9c0,3,0,6,0,9.1c0,0.7-0.2,0.8-0.9,0.9c-2.7,0-5.4,0-8,0
		C3.7,22.4,3.5,22.4,3.4,22.3z"/>
	<path class="st3" d="M36.3,32.9c-1.1,0.4-2.1,0.2-3-0.6c-0.7-0.6-1.3-1.3-1.9-1.9c-0.1-0.1-0.1-0.2,0-0.3c0.5-0.6,1-1.3,1.5-2
		c0.8-1.1,2.2-1.5,3.4-1c1.7,1.1,1.9,3.7,0.5,5.3C36.7,32.7,36.5,32.8,36.3,32.9z"/>
	<path class="st3" d="M26.4,37c-1.7,0.7-3.8-0.6-4-2.4c-0.2-1.8,1-3.3,2.7-3.5c0.2,0,0.3,0,0.5,0c0.7,0.2,1.4,0.2,2.1,0.2
		c0.1,0.1,0.1,0.3,0.1,0.5c0,0.9,0,1.8,0,2.6C27.7,35.5,27.3,36.4,26.4,37z"/>
	<path class="st4" d="M27,15.1c0.7,0.8,1,1.5,1.2,2.4c0.1,0.5,0.2,0.9,0.2,1.4c0,3.6,0,7.3,0,10.9c0,0.3-0.1,0.4-0.4,0.4
		c-0.3,0-0.8,0.1-0.9-0.1c-0.2-0.2-0.1-0.6-0.1-0.9c0-4.6,0-9.1,0-13.7C27,15.4,27,15.3,27,15.1z"/>
	<path class="st5" d="M36.4,16.7c0.2,0,0.1-0.2,0.1-0.3c0-1.5,0-2.9,0-4.4c0-0.3-0.2-0.4-0.5-0.4c-6.8,0-13.6,0-20.4,0
		c-0.2,0-0.3,0.1-0.5-0.1c6.5,0,13,0,19.5,0c0.9,0,1.8,0,2.7,0c0.6,0,0.8,0.2,0.8,0.8c0,1.4,0,2.7,0,4.1c0,0.2-0.1,0.3-0.3,0.3
		c-0.5,0-0.9,0-1.4,0C36.6,16.8,36.5,16.8,36.4,16.7z"/>
	<path class="st5" d="M31.5,22.3c0.1-0.1,0.3-0.1,0.4-0.1c1.4,0,2.8,0,4.2,0c0.5,0,0.5,0,0.5-0.5c0-1.3,0-2.6,0-3.9c0.5,0,1,0,1.5,0
		c0.2,0,0.2,0,0.2,0.2c0,1.2,0,2.4,0,3.6c0,0.4-0.2,0.7-0.7,0.7C35.6,22.4,33.6,22.3,31.5,22.3z"/>
	<path class="st5" d="M13.7,22.3c3.7,0,7.4,0,11.1,0c0.3,0,0.5-0.1,0.5-0.4c0-1.3,0-2.6,0-4c0.7,0,0.7,0,0.7,0.6c0,1.2,0,2.4,0,3.6
		c0,0.2,0,0.3-0.3,0.3c-3.9,0-7.8,0-11.8,0C13.9,22.4,13.8,22.4,13.7,22.3z"/>
	<path class="st6" d="M26.4,37c0.6-0.6,1.1-1.3,1.3-2.2c0-0.2,0-0.3,0-0.5c0-1,0-2,0-3c0.7-0.1,0.7-0.1,0.7,0.7
		c0,0.9,0.1,1.9-0.1,2.8C28.1,35.9,27.5,36.7,26.4,37z"/>
	<path class="st6" d="M36.3,32.9c0.5-0.5,0.9-1,1.1-1.7c0.4-1.3,0.2-2.6-0.7-3.6c-0.1-0.1-0.3-0.3-0.4-0.4c1.1,0.3,1.7,1.1,2,2.1
		c0.3,1.1,0,2.1-0.9,3C37.1,32.6,36.7,32.8,36.3,32.9z"/>
	<path class="st7" d="M24,16.8c0.3-0.1,0.7,0,1-0.1c0.2,0,0.3-0.1,0.3-0.3c0-0.3,0-0.7,0-1c0-0.7,0.2-0.8,0.8-0.8
		c-0.2,0.6-0.1,1.2-0.1,1.9c0,0.2-0.1,0.3-0.3,0.3C25.1,16.8,24.5,16.8,24,16.8z"/>
	<path class="st8" d="M30.1,29.2c-0.5-0.3-0.7-0.7-0.6-1.3c0-0.2,0-0.5,0-0.7c0.1,0,0.2,0.1,0.3,0.2c0.3,0.3,0.5,0.5,0.8,0.8
		c0.2,0.2,0.2,0.4,0,0.6C30.5,28.9,30.4,29.2,30.1,29.2z"/>
	<path class="st8" d="M24.5,23.5c0.4,0,0.8,0,1.3,0c0.2,0,0.2,0.1,0.2,0.2c0,0.4,0,0.8,0,1.2C25.5,24.4,25,23.9,24.5,23.5z"/>
	<path class="st9" d="M30.1,29.2c0.3-0.2,0.4-0.4,0.6-0.6c0.1-0.1,0-0.2,0-0.3c-0.4-0.4-0.7-0.7-1.1-1.1c0-0.1,0-0.3,0-0.5
		c0.6,0.6,1.1,1.1,1.6,1.7c0.1,0.1,0.1,0.2,0,0.2c-0.2,0.2-0.3,0.4-0.5,0.6C30.4,29.6,30.4,29.6,30.1,29.2z"/>
	<path d="M8,17.4c0-0.9,0-1.7,0-2.6c0-0.5,0-1.1,0-1.6c0-0.5,0.4-0.7,0.8-0.5c0.6,0.3,1.1,0.7,1.6,1.1c0.3,0.2,0.3,0.5,0.1,0.8
		c-0.2,0.2-0.5,0.3-0.7,0.1c-0.2-0.1-0.4-0.3-0.7-0.4c-0.1,0.1-0.1,0.3-0.1,0.4c0,1.3-0.1,2.7,0,4c0.1,1.7-1.4,2.3-2.5,2.2
		c-0.5,0-0.9-0.2-1.3-0.4c-1.1-0.8-1.1-2.2,0-2.9C6,17.2,6.7,17,7.5,17.3C7.7,17.3,7.8,17.4,8,17.4z"/>
	<path class="st10" d="M27.2,16.2c0.2,0.5,0.4,0.9,0.5,1.3c0.1,0.4,0.1,0.8,0.1,1.2c0,3.6,0,7.3,0,10.9c0,0.2,0.1,0.4-0.3,0.4
		c-0.2,0-0.3-0.1-0.3-0.3c0-4.5,0-9,0-13.4C27.1,16.4,27.1,16.4,27.2,16.2z"/>
	<path class="st11" d="M6.5,19.8C6,19.7,5.6,19.4,5.6,19c0-0.3,0.4-0.7,0.9-0.7C6.9,18.3,7,18.6,7,19C7,19.5,6.8,19.8,6.5,19.8z"/>
	<path class="st12" d="M6.5,19.8c0.4-0.1,0.4-0.5,0.4-0.8c0-0.3,0-0.6-0.4-0.7c0.4-0.1,0.8,0,1.2,0.2c0.4,0.3,0.4,0.7,0,1
		C7.3,19.8,7,19.9,6.5,19.8z"/>
	<path d="M35.3,28c-1.1,0-2,0.9-2.1,2.1c0,1.1,0.9,2.1,2.1,2.1c1.2,0,2.1-0.9,2.1-2.1C37.3,28.9,36.4,28,35.3,28z M35.3,31
		c-0.5,0-1-0.4-1-1c0-0.5,0.4-1,1-1c0.5,0,0.9,0.4,0.9,1C36.3,30.6,35.8,31,35.3,31z"/>
	<path d="M25.3,32.1c-1.1,0-2.1,0.9-2,2.1c0,1.1,0.9,2,2.1,2c1.2,0,2.1-0.9,2.1-2.1C27.4,33,26.5,32.1,25.3,32.1z M25.4,35.1
		c-0.5,0-1-0.4-1-1c0-0.5,0.4-0.9,1-1c0.6,0,1,0.4,1,1C26.3,34.7,25.9,35.1,25.4,35.1z"/>
</g>
</svg>
