<?xml version="1.0" encoding="utf-8"?>
<!-- Generator: Adobe Illustrator 24.3.0, SVG Export Plug-In . SVG Version: 6.00 Build 0)  -->
<svg version="1.1" id="Layer_1" xmlns="http://www.w3.org/2000/svg" xmlns:xlink="http://www.w3.org/1999/xlink" x="0px" y="0px"
	 viewBox="0 0 42 42" style="enable-background:new 0 0 42 42;" xml:space="preserve">
<style type="text/css">
	.st0{fill:url(#SVGID_1_);stroke:#5956ED;stroke-width:0.3242;}
	.st1{fill:url(#SVGID_2_);stroke:#5956ED;stroke-width:0.3242;}
	.st2{fill:url(#SVGID_3_);stroke:#5956ED;stroke-width:0.3242;}
	.st3{fill:url(#SVGID_4_);stroke:#5956ED;stroke-width:0.3242;}
	.st4{fill:url(#SVGID_5_);stroke:#5956ED;stroke-width:0.3242;}
</style>
<g>
	<linearGradient id="SVGID_1_" gradientUnits="userSpaceOnUse" x1="34.4913" y1="21.001" x2="39.4578" y2="21.001">
		<stop  offset="0.2593" style="stop-color:#3F7CFF"/>
		<stop  offset="1" style="stop-color:#0034FF"/>
	</linearGradient>
	<path class="st0" d="M39.5,22.5c-0.2,0.5-0.1,1-0.2,1.5c-0.4,2.9-1.3,5.6-2.7,8.1c-0.3,0.6-1,0.8-1.5,0.5c-0.5-0.3-0.7-0.9-0.4-1.6
		c1.2-2.1,2-4.4,2.3-6.8c0.7-4.7,0-9.1-2.3-13.3c-0.2-0.3-0.3-0.6-0.2-0.9c0.1-0.5,0.4-0.8,0.9-0.9c0.4-0.1,0.9,0.2,1.1,0.6
		c0.9,1.6,1.5,3.2,2,4.9c0.4,1.5,0.7,3,0.8,4.6c0,0.1,0,0.1,0.1,0.1C39.5,20.5,39.5,21.5,39.5,22.5z"/>
	<linearGradient id="SVGID_2_" gradientUnits="userSpaceOnUse" x1="14.0912" y1="21" x2="24.4969" y2="21">
		<stop  offset="0.2593" style="stop-color:#3F7CFF"/>
		<stop  offset="1" style="stop-color:#0034FF"/>
	</linearGradient>
	<path class="st1" d="M24.5,21c0,4.3,0,8.6,0,13c0,0.7-0.3,1.1-0.9,1.3c-0.3,0.1-0.6,0-0.9-0.2c-2.8-2.3-5.6-4.5-8.4-6.8
		c-0.1-0.1-0.2-0.2-0.2-0.4c0.1-4.6,0.2-9.2,0.2-13.8c0-0.2,0.1-0.3,0.2-0.4c2.7-2.1,5.4-4.3,8.1-6.5c0.4-0.3,0.8-0.4,1.3-0.2
		c0.5,0.2,0.6,0.6,0.6,1.1C24.5,12.3,24.5,16.7,24.5,21z"/>
	<linearGradient id="SVGID_3_" gradientUnits="userSpaceOnUse" x1="2.5422" y1="21.0016" x2="12.153" y2="21.0016">
		<stop  offset="0.2593" style="stop-color:#3F7CFF"/>
		<stop  offset="1" style="stop-color:#0034FF"/>
	</linearGradient>
	<path class="st2" d="M12.1,21c0,2.1-0.1,4.2-0.1,6.3c0,0.3-0.1,0.4-0.4,0.4c-1.9,0-3.7,0-5.6,0c-2,0-3.4-1.4-3.4-3.4
		c0-2.2,0-4.4,0-6.6c0-2,1.4-3.4,3.4-3.4c2,0,3.9,0,5.9,0c0.3,0,0.3,0.1,0.3,0.3c0,1.1,0,2.1,0,3.2C12.1,18.9,12.1,19.9,12.1,21
		C12.1,21,12.1,21,12.1,21z"/>
	<linearGradient id="SVGID_4_" gradientUnits="userSpaceOnUse" x1="30.5856" y1="20.9986" x2="34.5582" y2="20.9986">
		<stop  offset="0.2593" style="stop-color:#3F7CFF"/>
		<stop  offset="1" style="stop-color:#0034FF"/>
	</linearGradient>
	<path class="st3" d="M34.6,21c0,2.8-0.6,5.5-1.9,8c-0.3,0.5-0.6,0.7-1.1,0.7c-0.4,0-0.8-0.4-0.9-0.8c-0.1-0.3,0-0.6,0.1-0.9
		c0.8-1.7,1.3-3.4,1.5-5.2c0.3-3-0.2-5.9-1.5-8.6c-0.1-0.2-0.2-0.4-0.2-0.6c-0.1-0.5,0.2-1,0.7-1.2c0.5-0.2,1.1,0.1,1.3,0.6
		c0.6,1.3,1.1,2.6,1.5,4C34.4,18.3,34.6,19.6,34.6,21z"/>
	<linearGradient id="SVGID_5_" gradientUnits="userSpaceOnUse" x1="26.6231" y1="21.0006" x2="29.6573" y2="21.0006">
		<stop  offset="0.2593" style="stop-color:#3F7CFF"/>
		<stop  offset="1" style="stop-color:#0034FF"/>
	</linearGradient>
	<path class="st4" d="M29.7,21c0,1.6-0.3,3.3-0.9,4.8c-0.2,0.5-0.6,0.8-1.1,0.7c-0.5,0-0.9-0.4-1-0.9c-0.1-0.2,0-0.5,0.1-0.7
		c1-2.7,1-5.5,0-8.2c-0.2-0.6,0-1.2,0.6-1.5c0.6-0.2,1.2,0.1,1.4,0.7C29.4,17.7,29.7,19.3,29.7,21z"/>
</g>
</svg>
