<?xml version="1.0" encoding="utf-8"?>
<!-- Generator: Adobe Illustrator 24.3.0, SVG Export Plug-In . SVG Version: 6.00 Build 0)  -->
<svg version="1.1" id="Layer_1" xmlns="http://www.w3.org/2000/svg" xmlns:xlink="http://www.w3.org/1999/xlink" x="0px" y="0px"
	 viewBox="0 0 42 32" style="enable-background:new 0 0 42 32;" xml:space="preserve">
<style type="text/css">
	.st0{opacity:0.15;fill:#4545D6;}
	.st1{fill:#4545D6;}
	.st2{fill:#6690D3;}
	.st3{fill:#FEFEFE;}
	.st4{fill:#FDFDFD;}
</style>
<g>
	<path class="st0" d="M35.9,16c0,8.2-6.7,14.9-14.9,14.9c-8.2,0-14.9-6.7-14.9-14.9c0-8.2,6.7-15,15.1-14.9
		C29.3,1.2,35.9,7.9,35.9,16z"/>
	<path class="st0" d="M6.5,16C6.5,8,13,1.6,20.8,1.5c7.9-0.1,14.6,6.3,14.7,14.3C35.6,24,28.9,30.5,21,30.5C13,30.5,6.5,24,6.5,16z"
		/>
	<path class="st1" d="M25.5,14.9c-0.7,0.3-1.5,0.6-2.2,0.9c-0.1,0-0.1,0-0.2,0c-0.2-0.1-0.3-0.1-0.5-0.2c0,0.1,0,0.2,0,0.3
		c0,0.3-0.1,0.4-0.4,0.4c-0.3,0-0.6,0-0.9,0c-0.1,0-0.1,0-0.1,0.1c0.1,0.3-0.1,0.4-0.3,0.5c-1.9,0.8-3.7,1.5-5.6,2.3
		c-0.2,0.1-0.2,0.1-0.1,0.3c0.2,0.6,0.7,1,1.4,1.1c0.7,0.1,1.4-0.1,2.1-0.3c1-0.4,2-0.8,3-1.2c0.2-0.1,0.4-0.1,0.6-0.1
		c0,0,0.1,0,0.1,0c0-0.3,0.3-0.2,0.4-0.3c0,0.1,0,0.2,0,0.2c0,2.2,0,4.5,0,6.7c0,0.2,0,0.2-0.2,0.2c-3.1,0-6.2,0-9.3,0
		c-0.2,0-0.2,0-0.2-0.2c0-6.3,0-12.6,0-18.9c0-0.2,0-0.2,0.2-0.2c3.1,0,6.2,0,9.3,0c0.2,0,0.2,0,0.2,0.2c0,2.3,0,4.6,0,7
		c0,0.1,0,0.2,0.2,0.3c0.8,0.3,1.7,0.7,2.5,1C25.3,14.9,25.4,14.9,25.5,14.9z"/>
	<path class="st2" d="M28.3,14c-0.4-0.6-0.5-1.3-0.2-2c0.3-0.9,1.3-1.5,2.3-1.4c1,0.1,1.8,0.9,1.9,1.9c0.1,1-0.4,1.9-1.3,2.3
		c-2.8,1.2-5.7,2.4-8.5,3.5c-1.3,0.5-2.6,1.1-3.9,1.6c-0.6,0.2-1.2,0.4-1.9,0.4c-0.5,0-0.9-0.3-1.2-0.7c-0.1-0.1-0.1-0.2,0.1-0.3
		c4.2-1.7,8.4-3.5,12.6-5.2C28.2,14.1,28.2,14.1,28.3,14z"/>
	<path class="st1" d="M26.2,17.1c0.7-0.3,1.4-0.6,2.1-0.9c0.1,0,0.1,0,0.2,0c0.8,0.3,1.6,0.7,2.4,1c1,0.4,1.5,1.5,1.3,2.5
		c-0.3,1.1-1.2,1.7-2.3,1.6c-1.6-0.1-2.5-1.9-1.7-3.2c0.1-0.1,0.1-0.2-0.1-0.2c-0.6-0.2-1.2-0.5-1.8-0.7
		C26.4,17.1,26.3,17.1,26.2,17.1z"/>
	<path class="st3" d="M13.3,7.3c0-0.2-0.1-0.4,0-0.5c0.1-0.1,0.3,0,0.5,0c0.2,0,0.4-0.1,0.5,0c0.1,0.1,0,0.3,0,0.5
		c0,0.2,0,0.3,0,0.5c0,0.1,0,0.1-0.1,0.1c-0.3,0-0.6,0-0.8,0c-0.1,0-0.1,0-0.1-0.1C13.3,7.6,13.3,7.5,13.3,7.3
		C13.3,7.3,13.3,7.3,13.3,7.3z"/>
	<path class="st4" d="M22.2,7.3c0,0.1,0,0.3,0,0.4c0,0.1,0,0.2-0.1,0.2c-0.3,0-0.5,0-0.8,0c-0.1,0-0.1,0-0.1-0.1c0-0.3,0-0.6,0-0.8
		c0-0.1,0-0.1,0.1-0.1c0.3,0,0.6,0,0.9,0c0.1,0,0.1,0,0.1,0.1C22.2,7,22.2,7.2,22.2,7.3z"/>
	<path class="st3" d="M14.4,8.9c0,0.1,0,0.3,0,0.4c0,0.1,0,0.1-0.1,0.1c-0.3,0-0.6,0-0.8,0c-0.1,0-0.1,0-0.1-0.1c0-0.3,0-0.6,0-0.9
		c0-0.1,0-0.1,0.1-0.1c0.3,0,0.6,0,0.9,0c0.1,0,0.1,0,0.1,0.1C14.3,8.6,14.4,8.8,14.4,8.9z"/>
	<path class="st4" d="M22.2,8.9c0,0.2,0.1,0.4,0,0.5c-0.1,0.1-0.3,0-0.5,0c-0.2,0-0.4,0.1-0.5,0c-0.1-0.1,0-0.3,0-0.5
		c0-0.2,0-0.3,0-0.5c0-0.1,0-0.1,0.1-0.1c0.3,0,0.6,0,0.8,0c0.1,0,0.1,0,0.1,0.1C22.2,8.6,22.2,8.8,22.2,8.9
		C22.2,8.9,22.2,8.9,22.2,8.9z"/>
	<path class="st3" d="M13.3,10.4c0-0.1-0.1-0.4,0-0.5c0.1-0.1,0.3,0,0.5,0c0.1,0,0.3,0,0.4,0c0.1,0,0.1,0,0.1,0.1c0,0.3,0,0.6,0,0.9
		c0,0.1,0,0.1-0.1,0.1c-0.3,0-0.6,0-0.9,0c-0.1,0-0.1,0-0.1-0.1C13.3,10.8,13.3,10.6,13.3,10.4z"/>
	<path class="st3" d="M21.1,10.5c0-0.1,0-0.3,0-0.4c0-0.1,0-0.1,0.1-0.1c0.3,0,0.6,0,0.9,0c0.1,0,0.1,0,0.1,0.1c0,0.3,0,0.6,0,0.9
		c0,0.1,0,0.1-0.1,0.1c-0.3,0-0.6,0-0.9,0c-0.1,0-0.1,0-0.1-0.1C21.1,10.8,21.1,10.6,21.1,10.5z"/>
	<path class="st3" d="M14.3,12c0,0.2,0.1,0.4,0,0.5c-0.1,0.1-0.4,0-0.5,0c-0.2,0-0.4,0.1-0.5,0c-0.1-0.1,0-0.3,0-0.5
		c0-0.2-0.1-0.4,0-0.6c0.1-0.1,0.4,0,0.5,0c0.2,0,0.4-0.1,0.5,0C14.4,11.6,14.3,11.8,14.3,12C14.4,12,14.4,12,14.3,12
		C14.3,12,14.3,12,14.3,12z"/>
	<path class="st3" d="M14.4,19.9c0,0.1,0,0.3,0,0.4c0,0.1,0,0.1-0.1,0.1c-0.3,0-0.6,0-0.9,0c-0.1,0-0.1,0-0.1-0.1c0-0.3,0-0.6,0-0.9
		c0-0.1,0-0.1,0.1-0.1c0.3,0,0.6,0,0.8,0c0.1,0,0.1,0,0.1,0.1C14.3,19.6,14.4,19.8,14.4,19.9z"/>
	<path class="st3" d="M14.4,21.5c0,0.1,0.1,0.4,0,0.5c-0.1,0.1-0.3,0-0.5,0c-0.1,0-0.3,0-0.4,0c-0.1,0-0.1,0-0.1-0.1
		c0-0.3,0-0.6,0-0.9c0-0.1,0-0.1,0.1-0.1c0.3,0,0.6,0,0.9,0c0.1,0,0.1,0,0.1,0.1C14.3,21.2,14.4,21.3,14.4,21.5z"/>
	<path class="st4" d="M21.1,21.5c0-0.1,0-0.3,0-0.4c0-0.1,0-0.1,0.1-0.1c0.3,0,0.6,0,0.9,0c0.1,0,0.1,0,0.1,0.1c0,0.3,0,0.6,0,0.9
		c0,0.1,0,0.1-0.1,0.1c-0.3,0-0.6,0-0.9,0c-0.1,0-0.1,0-0.1-0.1C21.1,21.8,21.1,21.6,21.1,21.5z"/>
	<path class="st3" d="M14.3,23c0,0.2,0.1,0.4,0,0.5c-0.1,0.1-0.3,0-0.5,0c-0.2,0-0.4,0.1-0.5,0c-0.1-0.1,0-0.3,0-0.5
		c0-0.1,0-0.3,0-0.4c0-0.1,0-0.2,0.1-0.2c0.3,0,0.5,0,0.8,0c0.1,0,0.1,0,0.1,0.1C14.3,22.8,14.4,22.9,14.3,23
		C14.3,23,14.3,23,14.3,23z"/>
	<path class="st4" d="M22.2,23.1c0,0.1,0,0.3,0,0.4c0,0.1,0,0.1-0.1,0.1c-0.3,0-0.6,0-0.9,0c-0.1,0-0.1,0-0.1-0.1c0-0.3,0-0.6,0-0.9
		c0-0.1,0-0.1,0.1-0.1c0.3,0,0.6,0,0.8,0c0.1,0,0.1,0,0.1,0.1C22.2,22.8,22.2,22.9,22.2,23.1z"/>
	<path class="st3" d="M13.3,24.6c0-0.1,0-0.3,0-0.4c0-0.1,0-0.1,0.1-0.1c0.3,0,0.6,0,0.9,0c0.1,0,0.1,0,0.1,0.1c0,0.3,0,0.6,0,0.9
		c0,0.1,0,0.1-0.1,0.1c-0.3,0-0.6,0-0.9,0c-0.1,0-0.1,0-0.1-0.1C13.3,24.9,13.3,24.8,13.3,24.6z"/>
	<path class="st4" d="M21.1,24.6c0-0.1,0-0.3,0-0.4c0-0.1,0-0.1,0.1-0.1c0.3,0,0.6,0,0.9,0c0.1,0,0.1,0,0.1,0.1c0,0.3,0,0.6,0,0.9
		c0,0.1,0,0.1-0.1,0.1c-0.3,0-0.6,0-0.9,0c-0.1,0-0.1,0-0.1-0.1C21.1,24.9,21.1,24.8,21.1,24.6z"/>
	<path class="st3" d="M22.2,12c0,0.2,0.1,0.4,0,0.5c-0.1,0.1-0.3,0-0.5,0c-0.2,0-0.4,0.1-0.5,0c-0.1-0.1,0-0.3,0-0.5
		c0-0.2,0-0.3,0-0.5c0-0.1,0-0.1,0.1-0.1c0.3,0,0.6,0,0.8,0c0.1,0,0.1,0,0.1,0.1C22.2,11.8,22.2,11.9,22.2,12
		C22.2,12,22.2,12,22.2,12z"/>
	<path class="st3" d="M21.7,13c0.1,0,0.4-0.1,0.5,0c0.1,0.1,0,0.3,0,0.5c0,0.1,0,0.2,0,0.4c0,0.1,0,0.2-0.2,0.2c-0.3,0-0.5,0-0.8,0
		c-0.1,0-0.1,0-0.1-0.1c0-0.3,0-0.6,0-0.9c0-0.1,0-0.1,0.1-0.1C21.4,13.1,21.5,13,21.7,13z"/>
	<path class="st4" d="M22.2,19.9c0,0.1,0,0.3,0,0.4c0,0.1,0,0.1-0.1,0.1c-0.3,0-0.6,0-0.9,0c-0.1,0-0.1,0-0.1-0.1c0-0.3,0-0.6,0-0.9
		c0-0.1,0-0.1,0.1-0.1c0.3,0,0.6,0,0.9,0c0.1,0,0.1,0,0.1,0.1C22.2,19.6,22.2,19.8,22.2,19.9z"/>
	<path class="st3" d="M13.3,13.6c0-0.1,0-0.3,0-0.4c0-0.1,0-0.1,0.1-0.1c0.3,0,0.6,0,0.9,0c0.1,0,0.1,0,0.1,0.1c0,0.3,0,0.6,0,0.9
		c0,0.1,0,0.1-0.1,0.1c-0.3,0-0.6,0-0.9,0c-0.1,0-0.1,0-0.1-0.1C13.3,13.9,13.3,13.7,13.3,13.6z"/>
	<path class="st3" d="M13.8,15.7c-0.2,0-0.4,0.1-0.5,0c-0.1-0.1,0-0.3,0-0.5c0-0.2-0.1-0.4,0-0.5c0.1-0.1,0.3,0,0.5,0
		c0.1,0,0.3,0,0.4,0c0.1,0,0.1,0,0.1,0.1c0,0.3,0,0.6,0,0.9c0,0.1,0,0.1-0.1,0.1C14.1,15.7,14,15.7,13.8,15.7z"/>
	<path class="st3" d="M21.1,15.2c0-0.1,0-0.3,0-0.4c0-0.1,0-0.1,0.1-0.1c0.3,0,0.6,0,0.9,0c0.1,0,0.1,0,0.1,0.1c0,0.3,0,0.6,0,0.9
		c0,0.1,0,0.1-0.1,0.1c-0.3,0-0.6,0-0.9,0c-0.1,0-0.1,0-0.1-0.1C21.1,15.4,21.1,15.3,21.1,15.2z"/>
	<path class="st3" d="M14.4,16.8c0,0.1,0,0.3,0,0.4c0,0.1,0,0.1-0.1,0.1c-0.3,0-0.6,0-0.8,0c-0.1,0-0.1,0-0.1-0.1c0-0.3,0-0.6,0-0.8
		c0-0.1,0-0.1,0.1-0.1c0.3,0,0.5,0,0.8,0c0.1,0,0.1,0,0.1,0.1C14.3,16.5,14.4,16.7,14.4,16.8z"/>
	<path class="st3" d="M13.8,18.9c-0.1,0-0.3,0-0.4,0c-0.1,0-0.1,0-0.1-0.1c0-0.3,0-0.6,0-0.9c0-0.1,0-0.1,0.1-0.1c0.3,0,0.6,0,0.9,0
		c0.1,0,0.1,0,0.1,0.1c0,0.3,0,0.6,0,0.9c0,0.1,0,0.1-0.1,0.1C14.1,18.9,13.9,18.9,13.8,18.9z"/>
	<path class="st3" d="M30.1,14.1c-0.7,0-1.3-0.6-1.3-1.3c0-0.7,0.6-1.3,1.3-1.3c0.7,0,1.3,0.6,1.3,1.3
		C31.4,13.5,30.8,14.1,30.1,14.1z"/>
	<path class="st3" d="M28.9,19.2c0-0.7,0.6-1.3,1.3-1.3c0.7,0,1.3,0.6,1.3,1.3c0,0.7-0.6,1.3-1.3,1.3C29.4,20.5,28.8,19.9,28.9,19.2
		z"/>
</g>
</svg>
