<?xml version="1.0" encoding="utf-8"?>
<!-- Generator: Adobe Illustrator 24.3.0, SVG Export Plug-In . SVG Version: 6.00 Build 0)  -->
<svg version="1.1" id="Layer_1" xmlns="http://www.w3.org/2000/svg" xmlns:xlink="http://www.w3.org/1999/xlink" x="0px" y="0px"
	 viewBox="0 0 185 185" style="enable-background:new 0 0 185 185;" xml:space="preserve">
<style type="text/css">
	.st0{fill:url(#SVGID_1_);}
	.st1{fill-opacity:0.86;}
	.st2{enable-background:new    ;}
	.st3{fill:#111111;}
</style>
<linearGradient id="SVGID_1_" gradientUnits="userSpaceOnUse" x1="0" y1="748.5001" x2="185" y2="748.5001" gradientTransform="matrix(1 0 0 1 0 -656)">
	<stop  offset="0" style="stop-color:#6895CE"/>
	<stop  offset="1" style="stop-color:#3B56A6"/>
</linearGradient>
<path class="st0" d="M0,92.5C0,41.4,41.4,0,92.5,0H135c27.6,0,50,22.4,50,50v42.5c0,51.1-41.4,92.5-92.5,92.5l0,0
	C41.4,185,0,143.6,0,92.5L0,92.5z"/>
<path class="st1" d="M115,122.7h-0.3H115z M114.8,122.7L114.8,122.7L114.8,122.7z"/>
<g class="st2">
	<path class="st3" d="M60.4,148.3V26.5h16.1v60.4L137,26.5h21.9l-51.1,49.4l53.4,72.5h-21.3L96.5,86.7l-19.9,19.5v42.2H60.4z"/>
</g>
</svg>
